<svg width="960" height="720" viewBox="0 0 960 720" fill="none" xmlns="http://www.w3.org/2000/svg">
  <rect width="960" height="720" rx="32" fill="#0D1117"/>
  <rect x="28" y="28" width="904" height="664" rx="26" fill="url(#paint0_linear)"/>
  <rect x="64" y="72" width="832" height="56" rx="18" fill="#161B22"/>
  <circle cx="104" cy="100" r="10" fill="#FF5F56"/>
  <circle cx="136" cy="100" r="10" fill="#FFBD2E"/>
  <circle cx="168" cy="100" r="10" fill="#27C93F"/>
  <rect x="720" y="84" width="128" height="30" rx="15" fill="#21262D"/>
  <rect x="742" y="95" width="84" height="8" rx="4" fill="#8B949E"/>
  <rect x="88" y="176" width="296" height="24" rx="12" fill="#2EA043" fill-opacity="0.2"/>
  <rect x="88" y="224" width="452" height="72" rx="22" fill="#161B22"/>
  <rect x="112" y="248" width="180" height="10" rx="5" fill="#F0F6FC"/>
  <rect x="112" y="270" width="396" height="10" rx="5" fill="#6E7681"/>
  <rect x="572" y="224" width="300" height="184" rx="24" fill="#161B22"/>
  <rect x="604" y="256" width="236" height="120" rx="20" fill="url(#paint1_linear)"/>
  <path d="M620 352C651.333 308 688.333 286 731 286C773.667 286 807.667 312 833 364" stroke="#F0F6FC" stroke-opacity="0.85" stroke-width="10" stroke-linecap="round"/>
  <circle cx="674" cy="308" r="18" fill="#79C0FF"/>
  <circle cx="748" cy="282" r="14" fill="#D2A8FF"/>
  <circle cx="792" cy="326" r="20" fill="#2EA043"/>
  <rect x="88" y="340" width="452" height="296" rx="28" fill="#161B22"/>
  <rect x="120" y="380" width="160" height="10" rx="5" fill="#F0F6FC"/>
  <rect x="120" y="404" width="116" height="8" rx="4" fill="#8B949E"/>
  <rect x="120" y="446" width="388" height="16" rx="8" fill="#21262D"/>
  <rect x="120" y="476" width="388" height="16" rx="8" fill="#21262D"/>
  <rect x="120" y="506" width="388" height="16" rx="8" fill="#21262D"/>
  <rect x="120" y="550" width="164" height="42" rx="21" fill="#238636"/>
  <rect x="604" y="446" width="236" height="190" rx="28" fill="#161B22"/>
  <rect x="636" y="482" width="172" height="12" rx="6" fill="#F0F6FC"/>
  <rect x="636" y="510" width="140" height="8" rx="4" fill="#8B949E"/>
  <rect x="636" y="546" width="172" height="58" rx="18" fill="#0D1117"/>
  <defs>
    <linearGradient id="paint0_linear" x1="480" y1="28" x2="480" y2="692" gradientUnits="userSpaceOnUse">
      <stop stop-color="#0D1117"/>
      <stop offset="1" stop-color="#161B22"/>
    </linearGradient>
    <linearGradient id="paint1_linear" x1="604" y1="256" x2="840" y2="376" gradientUnits="userSpaceOnUse">
      <stop stop-color="#79C0FF" stop-opacity="0.85"/>
      <stop offset="0.5" stop-color="#D2A8FF" stop-opacity="0.8"/>
      <stop offset="1" stop-color="#2EA043" stop-opacity="0.8"/>
    </linearGradient>
  </defs>
</svg>
